<svg
                                    viewBox="0 0 377 340"
                                        xmlns="http://www.w3.org/2000/svg"
                                    >
                                        <g fill="#F9FAFC">
                                            <g>
                                                <path d="M342.8 3.7c24.7 14 18.1 75 22.1 124s18.6 85.8 8.7 114.2c-9.9 28.4-44.4 48.3-76.4 62.4-32 14.1-61.6 22.4-95.9 28.9-34.3 6.5-73.3 11.1-95.5-6.2-22.2-17.2-27.6-56.5-47.2-96C38.9 191.4 5 151.5.9 108.2-3.1 64.8 22.7 18 61.8 8.7c39.2-9.2 91.7 19 146 16.6 54.2-2.4 110.3-35.6 135-21.6z" />
                                            </g>
                                        </g>
                                    </svg>