<svg
                                        
                                        viewBox="0 0 378 410"
                                        xmlns="http://www.w3.org/2000/svg"
                                    >
                                        <g fill="#F9FAFC">
                                            <g>
                                                <path d="M305.9 14.4c23.8 24.6 16.3 84.9 26.6 135.1 10.4 50.2 38.6 90.3 43.7 137.8 5.1 47.5-12.8 102.4-50.7 117.4-37.9 15.1-95.7-9.8-151.7-12.2-56.1-2.5-110.3 17.6-130-3.4-19.7-20.9-4.7-82.9-11.5-131.2C25.5 209.5-3 174.7 1.2 147c4.2-27.7 41-48.3 75-69.6C110.1 56.1 141 34.1 184 17.5c43.1-16.6 98.1-27.7 121.9-3.1z" />
                                            </g>
                                        </g>
                                    </svg>